<svg width="13" height="11" viewBox="0 0 13 11" fill="none" xmlns="http://www.w3.org/2000/svg">
    <path fill-rule="evenodd" clip-rule="evenodd" d="m7.049 1 4.5 4.5-4.5-4.5zm4.5 4.5L7.05 10l4.5-4.5z" fill="#E27E40"/>
    <path d="M6.342 1.707A1 1 0 0 1 7.756.293L7.049 1l-.707.707zm5.914 3.086a1 1 0 1 1-1.414 1.414l.707-.707.707-.707zm-1.414 0a1 1 0 1 1 1.414 1.414L11.55 5.5l-.707-.707zm-3.086 5.914a1 1 0 1 1-1.414-1.414l.707.707.707.707zM7.05 1l.707-.707 4.5 4.5-.707.707-.707.707-4.5-4.5L7.049 1zm4.5 4.5.707.707-4.5 4.5L7.05 10l-.707-.707 4.5-4.5.707.707z" fill="#5E5E5E"/>
    <path stroke="#5E5E5E" stroke-width="2" stroke-linecap="round" d="M11 5.599H1"/>
</svg>
